# xmcd
#
# Track frame offsets: 
#        150
#        10310
#        24880
#        38580
#        50510
#        61130
#        74050
#        82710
#        96585
#        109135
#        122470
#        134745
#        146345
#        158450
#        168335
#        177145
#        187710
#        196995
#
# Disc length: 2770 seconds
#
# Revision: 0
# Processed by: cddbd v1.5.2PL0 Copyright (c) Steve Scherf et al.
# Submitted via: ExactAudioCopy v0.99pb5
#
DISCID=e30ad012
DTITLE=Willie Nelson - The Collection
DYEAR=1900
DGENRE=Country
TTITLE0=Healing Hands of Time
TTITLE1=Will You Remember Mine
TTITLE2=A Moment Isn't Very Long
TTITLE3=I Hope So
TTITLE4=8lame It on the Times
TTITLE5=Any Old Arms Won't Do
TTITLE6=Right from Wrong
TTITLE7=Rainy Day Blues
TTITLE8=Country Willie
TTITLE9=Everything But You
TTITLE10=The Shelter of Your Arms
TTITLE11=Til Stay Around
TTITLE12=I Can't Find the Time
TTITLE13=Pride Wins Again
TTITLE14=Waiting Time
TTITLE15=I Feel Sorry for Him
TTITLE16=Building Heartaches
TTITLE17=Go Away
EXTD=
EXTT0=
EXTT1=
EXTT2=
EXTT3=
EXTT4=
EXTT5=
EXTT6=
EXTT7=
EXTT8=
EXTT9=
EXTT10=
EXTT11=
EXTT12=
EXTT13=
EXTT14=
EXTT15=
EXTT16=
EXTT17=
PLAYORDER=
